PathFileType	4	(X/Y/Z)	54_2_rein_53_p1_0-1405_filt_butterworth.trc
DataRate	CameraRate	NumFrames	NumMarkers	Units	OrigDataRate	OrigDataStartFrame	OrigNumFrames
60.0	60.0	5	27	m	60.0	702	1405
Frame#	Time	RHip			RKnee			RAnkle			RBigToe			RSmallToe			RHeel			LHip			LKnee			LAnkle			LBigToe			LSmallToe			LHeel			Neck			Head			Nose			RShoulder			RElbow			RWrist			RThumb			RIndex			RPinky			LShoulder			LElbow			LWrist			LThumb			LIndex			LPinky			
		X1	Y1	Z1	X2	Y2	Z2	X3	Y3	Z3	X4	Y4	Z4	X5	Y5	Z5	X6	Y6	Z6	X7	Y7	Z7	X8	Y8	Z8	X9	Y9	Z9	X10	Y10	Z10	X11	Y11	Z11	X12	Y12	Z12	X13	Y13	Z13	X14	Y14	Z14	X15	Y15	Z15	X16	Y16	Z16	X17	Y17	Z17	X18	Y18	Z18	X19	Y19	Z19	X20	Y20	Z20	X21	Y21	Z21	X22	Y22	Z22	X23	Y23	Z23	X24	Y24	Z24	X25	Y25	Z25	X26	Y26	Z26	X27	Y27	Z27	
702	11.7	0.31386199178299706	0.4784224890612886	0.9893243877837408	0.2930343713131042	0.5615056174395828	1.4724052626062205	0.2722144413066987	0.558892947129571	1.9271054443632551	0.21546347489425927	0.35077094489165295	1.929849234860373	0.2884160775898768	0.39211423195527473	1.9575207085754558	0.24326957364722107	0.6358844785494424	2.0022789656875646	0.10650155620068545	0.49889470246861534	0.9801453340459368	0.09698014736341098	0.5194847840529146	1.4664130566369435	0.06967544368554895	0.5691755094851578	1.8884037187243772	0.06459200792273848	0.3759819536073057	1.939564250799922	0.014411433510826254	0.4262816048541769	1.95324161754121	0.0835561184338554	0.629396494390086	1.9519728778022363	0.2505827360789604	0.48862001051944676	0.4241278032463315	0.2526446792091602	0.418492988502437	0.17010109096391998	0.22603162028244755	0.3930992049697753	0.31029079493011275	0.41791059624247906	0.48311602886354055	0.5201563252824631	0.44050681766082067	0.4850663458096325	0.7872543484666557	0.4153608279597363	0.27298638962953836	0.8047452046455178	0.38378943900715223	0.10855627134046009	0.7593034182154925	0.3905251710487476	0.10147933262495452	0.7726056137653181	0.37625266702421517	0.14908236588871965	0.8218505703088387	0.09913733093079732	0.5556806447352827	0.47714443071354445	0.01873380061763633	0.6170315455149	0.7180870142790146	0.04406256401499703	0.37258893802390075	0.7715147337967494	0.0754408982770132	0.2186292906420641	0.758119049668296	0.06824647400924043	0.20390544553224071	0.7714823640109416	0.02607851169342787	0.2707621063547429	0.8153332604405552
703	11.716666666666669	0.31384901481358857	0.47840022099588314	0.9892981412121571	0.29294278209935126	0.561558734903081	1.4722907117605353	0.2721092914179724	0.5588126976161798	1.9265585036389674	0.21589214673926815	0.35196314070968704	1.9306412735342606	0.2884760034588083	0.3922414804514434	1.9576050284767852	0.24327730406723283	0.6362096237825539	2.0021712525850517	0.10683287868384292	0.5002930747820672	0.980123227184565	0.09620018871337878	0.5192032375794784	1.4658135407053883	0.06968365673266294	0.5691512462674226	1.8883960862565452	0.0645945655910566	0.37604964028053106	1.9396054595621735	0.014419274260592332	0.42625202449754374	1.9532146269972626	0.08365466803752553	0.6290089039887938	1.9529135452123612	0.2505870237727013	0.48862074883174866	0.42412945541517966	0.2516337166924759	0.416049870878809	0.1700023482445395	0.22572695147492436	0.39228005629627594	0.31022584567627576	0.41792942760402074	0.48311584747116587	0.5201475649051046	0.4404953010426782	0.48508216484773026	0.7872290710720422	0.4156141966608078	0.2738037305912017	0.8048731493684748	0.383802178756612	0.10852075513330221	0.7595188176179497	0.39085018905427155	0.10095653283102075	0.7724522037111866	0.3761957130246903	0.14883775178161884	0.8219342173613313	0.09914751348722042	0.5557011009125833	0.4770468806524851	0.01983394434968796	0.6133789790220059	0.7149704093136648	0.044045944027443155	0.37277010603379823	0.7728710205907434	0.07544155396722423	0.21865590001454813	0.7580739688783955	0.06825463438118926	0.2039555433928923	0.7714525939857692	0.02667692977983395	0.2715762704887429	0.8162375005520929
704	11.733333333333333	0.3138435889549155	0.47838720826081027	0.989267062200599	0.2928650267565934	0.5616070069076883	1.4722848704639449	0.2721128374271426	0.558979048175026	1.9257440679946383	0.2167672335452657	0.3543466389089375	1.932322135293992	0.2884982295989038	0.39216501626080624	1.9579312022366158	0.24352757397447122	0.6369072881180247	2.0024649735042575	0.10767622229767293	0.5032932669315124	0.9801100286885575	0.09586901659359286	0.5189326697564156	1.465399757203098	0.06969307243096014	0.5691305052592726	1.8883877263686992	0.06460585733962482	0.3760858605187988	1.9396914549202706	0.014427684555706827	0.42620832037439993	1.9531880428876929	0.08369928590413644	0.6288871867918462	1.9532355898345677	0.25059321248354605	0.4886288521619421	0.4241213172950563	0.2512271821005446	0.4151166827954897	0.16994459860867986	0.22524505693378863	0.39091051755468964	0.31009087390271717	0.4179444436706664	0.4831115118922964	0.5201416624748267	0.4404764770483829	0.4851305327724286	0.7872163135239831	0.41640422041856595	0.2758786751798625	0.8053416340417549	0.3838107902107589	0.10855311748032043	0.7598109244681722	0.3904085875462656	0.1005502696680867	0.7723667908326373	0.37622620135563584	0.1488602208215442	0.821842777108828	0.09915727122440864	0.5557077902298639	0.4769906888120289	0.021284389881221187	0.6086709079902898	0.7120709262714494	0.044062131654274986	0.37290068611334815	0.7733223632476511	0.07542875926817195	0.2186742560129763	0.7580004661852975	0.06822995917708984	0.2040200325213604	0.7714451233196713	0.028038840980488103	0.2716706239713644	0.8175436894388329
705	11.75	0.31384677833366703	0.4783907538213931	0.9892384665505363	0.29284478338552306	0.5616063954676063	1.4727234477920834	0.27208763631603733	0.5591267850242648	1.9250908046669002	0.21786879546583296	0.35730675903712905	1.9343996775581653	0.2885362480929305	0.3920407518846387	1.9586007387998938	0.24392906883495177	0.6378333706098172	2.0032023732213227	0.10878640658471964	0.5070408278476234	0.9801112478831704	0.09578418756665802	0.5186844473575569	1.4650659813316693	0.06970636826546914	0.5691161850274432	1.8883784768390721	0.06462421626431539	0.37610590140695754	1.9398176310978734	0.014433622160326502	0.42617634358911516	1.9531687609899617	0.0837129761999913	0.6289230187453363	1.9532021210407846	0.25060228747352503	0.4886402547222735	0.4241098774367137	0.251211529267631	0.4151238146257254	0.16991307306211131	0.22372651504046254	0.386557362882392	0.30966639148913533	0.4179505739862127	0.4831056380654937	0.5201477977637812	0.4404542014124951	0.48518413542501637	0.7872072018693759	0.41763647014360017	0.2786059427691592	0.8059393393550403	0.38382138552880657	0.10862643521681933	0.7602177985601637	0.3894132880467802	0.10015385717776501	0.7723278074780942	0.37663171195880485	0.14974806975889854	0.8220987577411099	0.09916515983338443	0.555711427863832	0.47697607025557776	0.022375912945102428	0.6051619884343603	0.7108945637223903	0.04408168922520706	0.3729881876806192	0.7733059350972931	0.07541458015663172	0.21867793173423855	0.758013826189879	0.06820822430423829	0.20408226571872606	0.7714840446602602	0.02945545980476316	0.27026447919588903	0.8194003766719666
706	11.766666666666667	0.31386805920575156	0.4784330020642743	0.9892304873036709	0.29288439988439535	0.5614524048095798	1.4737906728743175	0.2720324007512779	0.5589357977716917	1.9248929861632729	0.21869922465548985	0.3594309422173208	1.9358073448585786	0.2885893793763161	0.391946610476982	1.9594145242012562	0.2443069487244367	0.6386802720701226	2.0040205726948717	0.10962336024328298	0.5098683500891967	0.980137506640029	0.09596661428257286	0.5186983740992328	1.4651516388844872	0.0697154217882857	0.5691083710429572	1.8883679105603037	0.0646162344086591	0.37607586682457916	1.93979628086292	0.014432698716248638	0.42616569898894413	1.9531604689967972	0.08371266831370064	0.6289761913193339	1.9530953182501987	0.2506099153884718	0.48864781444152	0.4241048385295405	0.2512964032074314	0.41533553622405006	0.16989370950341778	0.22118653400949606	0.3792544198010614	0.3089666165787771	0.4179550155491726	0.4831046721254569	0.5201746638797328	0.4404358150764185	0.48522463559182594	0.7871819385763682	0.41905392841912925	0.28071107337804735	0.8063407783013726	0.38383180876162964	0.10866037424436434	0.7605136121735588	0.3885029466715835	0.0998756438919369	0.7723297214080596	0.3776159999094421	0.15189678220333405	0.8231575030600317	0.09917410988410474	0.5557118694202123	0.4769946298691782	0.02279666271087472	0.6038497085231389	0.7114901105348109	0.04408850633034896	0.3730344024050373	0.7731943743853898	0.07542079337788007	0.21860294937726585	0.7583765232870442	0.0682083006878799	0.20414619303298087	0.7715564994382568	0.030598039512892763	0.26803586485499287	0.8214028165060118
